<svg xmlns="http://www.w3.org/2000/svg" viewBox="0 0 128 128">
  <path fill="#4caf50" d="M12 64c0-28.7 23.3-52 52-52 14.1 0 26.9 5.6 36.3 14.7L88 39.1c-1.3 1.3-.4 3.6 1.4 3.6h32.1c1.1 0 2-1.3 2-2V8.6c0-1.8-2.2-2.7-3.5-1.4l-11.2 11.2C96.3 7 81 0 64 0 28.7 0 0 28.7 0 64s28.7 64 64 64c18.5 0 35.1-7.8 46.8-20.4 1.2-1.3.4-3.6-1.4-3.6h-5.9c-1.1 0-2.1.5-2.7 1.3C90.1 115.8 77.8 122.9 64 122.9 35.3 122.9 12 99.6 12 64z"/>
  <path fill="#81c784" d="M64 48c-8.8 0-16 7.2-16 16s7.2 16 16 16 16-7.2 16-16-7.2-16-16-16z"/>
</svg>
